<svg width="640" height="420" viewBox="0 0 640 420" fill="none" xmlns="http://www.w3.org/2000/svg">
  <rect width="640" height="420" rx="28" fill="#F8FAFC"/>
  <rect x="28" y="28" width="584" height="364" rx="24" fill="url(#bg)"/>
  <rect x="68" y="74" width="230" height="18" rx="9" fill="#1D4ED8" fill-opacity="0.14"/>
  <rect x="68" y="108" width="304" height="22" rx="11" fill="#0F172A"/>
  <rect x="68" y="144" width="260" height="16" rx="8" fill="#64748B" fill-opacity="0.45"/>
  <rect x="68" y="198" width="224" height="132" rx="18" fill="#DBEAFE"/>
  <path d="M96 300L144 246L182 282L226 228L264 300H96Z" fill="#60A5FA"/>
  <circle cx="154" cy="238" r="18" fill="#BFDBFE"/>
  <rect x="332" y="198" width="188" height="16" rx="8" fill="#1E293B" fill-opacity="0.9"/>
  <rect x="332" y="226" width="164" height="12" rx="6" fill="#475569" fill-opacity="0.44"/>
  <rect x="332" y="250" width="182" height="12" rx="6" fill="#475569" fill-opacity="0.44"/>
  <rect x="332" y="274" width="150" height="12" rx="6" fill="#475569" fill-opacity="0.44"/>
  <rect x="332" y="322" width="98" height="30" rx="15" fill="#0F172A"/>
  <path d="M445 82H534" stroke="#2563EB" stroke-width="6" stroke-linecap="round"/>
  <path d="M445 102H566" stroke="#2563EB" stroke-opacity="0.35" stroke-width="6" stroke-linecap="round"/>
  <path d="M445 122H548" stroke="#2563EB" stroke-opacity="0.2" stroke-width="6" stroke-linecap="round"/>
  <defs>
    <linearGradient id="bg" x1="320" y1="28" x2="320" y2="392" gradientUnits="userSpaceOnUse">
      <stop stop-color="#FFFFFF"/>
      <stop offset="1" stop-color="#EFF6FF"/>
    </linearGradient>
  </defs>
</svg>
